# xmcd
#
# Track frame offsets:
#	150
#	14181
#	24763
#	38426
#	58897
#	78517
#	95497
#	108127
#	120918
#	131104
#	148933
#	162265
#	176785
#	187832
#	201939
#	217266
#	236889
#	254467
#	264609
#	282807
#	301027
#
# Disc length: 4219
#
# Revision: 2
# Processed by: cddbd v1.5.1PL0 Copyright (c) Steve Scherf et al.
# Submitted via: audiograbber 1.82.01
# Normalized: r1:DSETVAR2
#
DISCID=2f107915
DTITLE=Various Artist - YU Evergrine
DYEAR=1900
DGENRE=sentis
TTITLE0=Dragan Stojnic - Bila je tako lijepa
TTITLE1=Ivo Robic - Samo jednom se ljubi
TTITLE2=Nena Ivosevic - Pisi mi
TTITLE3=Zlatko Pejakovic - Zbog jedne divne crne zene
TTITLE4=Zlatko Pejakovic - Ove noci
TTITLE5=Miki Jevremovic - Ako jednom vidis Mariju
TTITLE6=Djordje Marjanovic - Zvizduk u osam
TTITLE7=Kemal Monteno - Jedne noci u Decembru
TTITLE8=Lola Novakovic - Kap veselja
TTITLE9=Miso Kovac - Ostala si uvjek ista
TTITLE10=Leo Martin - Odiseja
TTITLE11=Vladimir Savcic Cobi - Lola
TTITLE12=Boba Stefanovic - Ona, ona, ona
TTITLE13=Radmila Karakljajic - Andjelina zumba zumba
TTITLE14=Gabi Novak - On me voli na svoj nacin
TTITLE15=Arsen Dedic - Devojka za jedan dan
TTITLE16=Oliver Dragojevic - Oprosti mi pape
TTITLE17=Slavko Perovic - Jedan dan zivota
TTITLE18=Jadranka Stojakovic - Sto te nema
TTITLE19=Zdravko Colic - Sinoc nisi bila tu
TTITLE20=Jasna Zlokic - Skitnica
EXTD=
EXTT0=
EXTT1=
EXTT2=
EXTT3=
EXTT4=
EXTT5=
EXTT6=
EXTT7=
EXTT8=
EXTT9=
EXTT10=
EXTT11=
EXTT12=
EXTT13=
EXTT14=
EXTT15=
EXTT16=
EXTT17=
EXTT18=
EXTT19=
EXTT20=
PLAYORDER=
